<?xml version="1.0" encoding="utf-8"?>
<!DOCTYPE svg PUBLIC "-//W3C//DTD SVG 1.0//EN" "http://www.w3.org/TR/2001/REC-SVG-20010904/DTD/svg10.dtd">
<svg version="1.0" xmlns="http://www.w3.org/2000/svg" width="1080px" height="691px" viewBox="0 0 1080 691" preserveAspectRatio="xMidYMid meet">
 <g fill="#076337">
  <path d="M230.3 440.8 c-9.9 -12.8 -18.6 -24.3 -19.4 -25.6 -1.7 -2.9 -3.7 -1.1 30.1 -26.5 14 -10.6 28.4 -22 32.1 -25.4 3.7 -3.5 6.9 -6.3 7.3 -6.3 0.3 0 0.6 1.5 0.6 3.3 0 6 -13.7 26.3 -28.8 42.7 -4.3 4.7 -5.8 6.9 -5.2 8 0.5 0.8 4.9 6.7 9.9 13 6.7 8.5 9.1 12.2 9.1 14.3 0 2.4 -0.2 2.7 -1.4 1.8 -1.2 -1 -2.3 0.3 -6.5 7.3 -2.8 4.7 -6 10.4 -7.1 12.6 -1.1 2.2 -2.2 4 -2.3 4 -0.2 0 -8.5 -10.5 -18.4 -23.2z"/>
  <path d="M698.9 451.5 c-10.1 -3.2 -19.3 -12.3 -22.1 -21.8 -0.7 -2.3 -1.2 -8.2 -1.2 -13.2 0 -7.8 0.4 -9.9 2.8 -15.2 3.4 -7.5 9.5 -13.4 17.4 -17.1 4.9 -2.3 7 -2.6 15.7 -2.7 8.9 0 10.7 0.3 16.3 2.9 9 4.2 15.5 11.6 18.3 20.8 5.7 18.6 -1.9 37.1 -18.1 44.7 -6.9 3.1 -21.7 4 -29.1 1.6z m20.6 -18.3 c4.2 -2.4 7.5 -9.4 7.5 -15.9 0 -6.5 -1.7 -10.8 -5.9 -14.8 -2.9 -2.7 -3.9 -3 -9.6 -3 -5.9 0 -6.6 0.2 -10 3.5 -5.2 5.1 -6.8 12.7 -4.4 21.5 1.2 4.4 6.6 10.1 10.1 10.8 3.5 0.7 8.9 -0.2 12.3 -2.1z"/>
  <path d="M593 417 l0 -35.1 10.3 0.3 10.2 0.3 0.2 3.5 c0.1 1.9 0.2 3.9 0.2 4.4 0.1 0.4 1.8 -0.6 3.8 -2.4 5.2 -4.6 9.8 -6.2 18 -6.3 12.2 -0.1 20.8 5.5 25 16.4 1.3 3.6 1.7 9 2.1 29.2 l0.4 24.7 -10.6 0 -10.6 0 0 -21.7 c0 -19.8 -0.2 -22.1 -2 -25 -5 -8.3 -15.7 -9.4 -22.6 -2.2 l-2.9 3 -0.3 23 -0.3 22.9 -10.5 0 -10.4 0 0 -35z"/>
  <path d="M761 417 l0 -35 10.5 0 10.5 0 0 5.5 c0 3 0.2 5.5 0.5 5.5 0.3 0 1.9 -1.5 3.6 -3.4 3.2 -3.7 9.3 -7 14.7 -8 l3.2 -0.5 0 10.9 0 11 -4.2 0 c-6.5 0 -11.1 1.6 -14.4 5.1 l-2.9 3 -0.3 20.5 -0.3 20.4 -10.5 0 -10.4 0 0 -35z"/>
  <path d="M187.1 434.2 c-0.7 -1.4 -0.7 -2.4 0.2 -3.6 1 -1.4 2.8 -1.6 10.7 -1.4 l9.5 0.3 0 3 0 3 -9.7 0.3 c-8.7 0.2 -9.8 0.1 -10.7 -1.6z"/>
  <path d="M180.1 414.6 c-0.9 -1.1 -1 -2 -0.1 -3.5 1 -1.9 2 -2.1 9.9 -2.1 9.5 0 11.8 1.1 10.6 5 -0.6 1.8 -1.4 2 -9.9 2 -6.9 0 -9.7 -0.4 -10.5 -1.4z"/>
  <path d="M187.4 395.6 c-0.3 -0.8 -0.4 -2.3 -0.2 -3.3 0.3 -1.6 1.5 -1.8 10.3 -1.8 l10 0 0 3 0 3 -9.8 0.3 c-7.8 0.2 -9.8 0 -10.3 -1.2z"/>
 </g>
 <g fill="#ea5a26">
  <path d="M276 453.8 c-2.5 -3.4 -6.8 -8.6 -9.5 -11.7 -4.8 -5.3 -16.6 -20 -22.8 -28.4 -1.6 -2.1 -2.7 -4.1 -2.5 -4.6 0.2 -0.4 3.9 -4.7 8.3 -9.5 10.8 -11.8 21.2 -25.9 25.9 -35.1 2.2 -4.1 4.4 -7.4 5 -7.2 0.5 0.2 5.4 7.1 10.8 15.3 16.1 24.6 15 22.2 13.7 29 -2.7 14.4 -16.2 48 -22.7 56.1 l-1.7 2.1 -4.5 -6z m-5 -24.8 c4.8 -4.8 -0.1 -12.4 -6.4 -10 -4.6 1.7 -5.8 6.3 -2.6 9.8 2.6 2.7 6.4 2.8 9 0.2z"/>
  <path d="M365.1 451.4 c-21.3 -5.7 -34.7 -25.3 -32.5 -47.4 1.5 -15.3 8.9 -26.9 21.7 -34.4 13.8 -8.1 35.4 -7.5 48.1 1.4 6 4.1 14.6 14.3 14.6 17.1 0 0.5 -3.5 0.9 -7.9 0.9 l-7.8 0 -2.6 -3.9 c-4.1 -6.2 -10.4 -9.4 -19.7 -9.9 -11 -0.6 -16.8 1.5 -24.1 8.7 -8.2 8.3 -11.3 19 -8.9 31.5 3.2 17.2 17.8 28.2 34.8 26.2 7.1 -0.8 12.1 -3.5 17 -9.1 l4 -4.5 7.6 0 7.7 0 -2.8 5.1 c-8.3 15.3 -30.2 23.4 -49.2 18.3z"/>
  <path d="M537.4 451.9 c-5.3 -1.5 -12.7 -7.2 -16.2 -12.3 -4.8 -7.2 -6.5 -14.2 -6 -24.6 0.7 -14.6 7.2 -24.6 19.8 -30.3 5.8 -2.6 7.3 -2.9 14 -2.5 8.2 0.5 15.2 3.2 19.2 7.5 3.1 3.3 3.8 2.9 3.8 -2.2 l0 -4.5 7 0 7 0 0 34.5 0 34.5 -7 0 -7 0 0 -4.5 c0 -2.5 -0.3 -4.5 -0.6 -4.5 -0.3 0 -2.4 1.6 -4.6 3.4 -2.2 1.9 -6.1 4.2 -8.6 5 -4.9 1.7 -15.8 2 -20.8 0.5z m20.3 -11.2 c4 -1.5 9.8 -6.8 12 -11.1 2.5 -4.8 2.9 -15.7 0.8 -21.3 -4.9 -12.9 -17.2 -18.1 -30 -12.7 -3.6 1.5 -7.6 5.6 -10.1 10.4 -2.8 5.2 -2.6 18.1 0.3 23.5 5.5 10.4 16.6 15 27 11.2z"/>
  <path d="M436 405.5 l0 -46.5 6.5 0 6.5 0 0 14.9 c0 8.3 0.4 15.2 0.9 15.6 0.5 0.3 2.9 -0.8 5.3 -2.3 5.7 -3.9 10 -5.2 16.4 -5.2 8 0 15.6 3.2 20.4 8.7 6.3 7.2 7 11 7 38 l0 23.3 -6.4 0 -6.5 0 -0.3 -23.8 c-0.3 -23.6 -0.3 -23.9 -2.8 -27.5 -4.6 -6.9 -14.6 -9.6 -22.7 -6.2 -9.7 4.1 -10.6 6.8 -11.1 34.8 l-0.4 22.7 -6.4 0 -6.4 0 0 -46.5z"/>
 </g>
</svg>